<?xml version="1.0" standalone="no"?>
<!DOCTYPE svg PUBLIC "-//W3C//DTD SVG 20010904//EN"
 "http://www.w3.org/TR/2001/REC-SVG-20010904/DTD/svg10.dtd">
<svg version="1.0" xmlns="http://www.w3.org/2000/svg"
 width="700.000000pt" height="440.000000pt" viewBox="0 0 700.000000 440.000000"
 preserveAspectRatio="xMidYMid meet">

<g transform="translate(0.000000,440.000000) scale(0.100000,-0.100000)"
fill="#000000" stroke="none">
<path d="M3335 3101 c-322 -92 -493 -430 -370 -734 125 -309 496 -445 802
-295 96 47 200 148 247 240 112 220 65 485 -114 651 -76 70 -146 110 -240 136
-94 26 -238 27 -325 2z m255 -35 c222 -40 397 -217 431 -434 31 -204 -82 -416
-273 -513 -85 -43 -148 -59 -238 -59 -324 0 -579 280 -530 585 34 214 209 388
428 425 69 11 99 11 182 -4z"/>
<path d="M3363 2966 c-108 -35 -209 -123 -257 -226 -29 -60 -31 -73 -31 -170
0 -97 2 -110 31 -170 131 -278 509 -335 718 -109 75 80 101 154 101 279 -1 75
-6 107 -24 154 -32 81 -126 175 -217 218 -62 29 -79 33 -174 35 -68 2 -120 -2
-147 -11z m270 -56 c161 -61 256 -205 245 -372 -10 -132 -81 -237 -205 -299
-65 -32 -73 -34 -173 -34 -98 1 -109 3 -165 32 -71 37 -157 124 -188 190 -18
39 -22 66 -22 143 0 84 3 102 29 153 86 176 293 257 479 187z"/>
<path d="M3425 2903 c-99 -22 -189 -88 -235 -174 -33 -60 -35 -70 -35 -159 0
-85 3 -101 29 -153 34 -67 83 -115 158 -154 48 -25 63 -28 158 -28 97 0 110 2
163 30 156 78 226 258 165 422 -15 43 -37 74 -83 118 -53 53 -71 64 -135 83
-70 20 -137 26 -185 15z m89 -115 l-37 -73 -55 60 -55 59 34 12 c19 7 60 13
92 13 l57 1 -36 -72z m106 39 c0 -8 -9 -40 -20 -72 -43 -124 -21 -150 114
-139 74 6 86 5 86 -9 0 -11 -17 -19 -57 -27 -90 -18 -122 -30 -134 -51 -14
-27 -4 -53 47 -125 64 -91 40 -98 -43 -13 -93 97 -115 94 -174 -24 -30 -58
-43 -77 -52 -68 -8 8 -5 27 11 73 12 35 22 77 22 95 0 47 -25 57 -132 51 -81
-5 -88 -4 -88 13 0 11 7 19 17 19 49 0 148 25 164 41 28 28 23 51 -27 124 -28
41 -43 73 -39 83 4 12 20 0 66 -51 52 -58 65 -67 95 -67 29 0 38 6 59 40 14
22 32 58 41 80 15 38 44 55 44 27z m142 -115 c11 -18 18 -35 16 -37 -2 -3 -37
-8 -76 -11 -69 -7 -72 -6 -72 14 0 12 6 39 14 59 8 21 17 47 20 57 6 18 10 16
42 -15 19 -19 45 -49 56 -67z m-448 -27 c21 -30 37 -58 34 -60 -3 -3 -37 -12
-77 -19 -67 -13 -71 -13 -71 5 0 43 52 145 69 135 4 -3 24 -30 45 -61z m486
-167 c0 -26 -43 -122 -58 -132 -9 -6 -87 100 -87 119 0 5 25 15 55 21 83 18
90 17 90 -8z m-445 -118 c-10 -34 -21 -63 -25 -65 -18 -11 -110 95 -110 127 0
9 132 15 144 6 6 -4 2 -32 -9 -68z m229 -47 l48 -53 -27 -10 c-15 -6 -54 -13
-86 -17 -50 -5 -59 -3 -59 10 0 26 53 128 65 125 5 -2 32 -27 59 -55z"/>
<path d="M3471 2639 c-55 -22 -68 -83 -26 -124 49 -50 135 -15 135 55 0 28
-29 70 -49 70 -5 0 -15 2 -23 4 -7 3 -24 0 -37 -5z m54 -69 c0 -18 -6 -26 -23
-28 -27 -4 -40 22 -22 44 19 22 45 13 45 -16z"/>
<path d="M6010 1914 l0 -65 -22 15 c-33 24 -82 20 -115 -8 -26 -23 -28 -29
-28 -106 0 -77 2 -83 28 -106 32 -27 83 -32 113 -9 25 19 34 19 34 0 0 -10 10
-15 30 -15 l30 0 0 180 0 180 -35 0 -35 0 0 -66z m-12 -106 c7 -7 12 -33 12
-58 0 -25 -5 -51 -12 -58 -19 -19 -66 -15 -78 7 -15 29 -12 87 6 105 18 19 55
21 72 4z"/>
<path d="M990 1942 c-54 -29 -83 -92 -77 -169 3 -35 12 -74 21 -88 36 -56 106
-76 195 -59 27 6 31 11 31 40 0 32 -1 32 -32 23 -54 -15 -87 -11 -113 16 -21
20 -25 34 -25 79 0 44 5 60 27 86 23 28 31 31 62 27 20 -3 44 -8 53 -12 13 -5
21 0 29 19 17 37 3 47 -73 53 -49 3 -71 0 -98 -15z"/>
<path d="M1980 1790 l0 -170 35 0 35 0 0 65 0 65 60 0 60 0 0 30 0 30 -60 0
-60 0 0 45 0 45 65 0 65 0 0 30 0 30 -100 0 -100 0 0 -170z"/>
<path d="M2840 1952 c-67 -30 -100 -87 -100 -170 0 -115 79 -176 204 -158 44
7 46 9 46 41 0 33 0 33 -32 24 -54 -15 -87 -11 -113 16 -21 20 -25 34 -25 80
0 49 4 60 29 86 32 31 53 35 98 18 23 -8 30 -7 40 7 20 28 16 41 -18 53 -35
12 -105 14 -129 3z"/>
<path d="M5004 1950 c-42 -13 -91 -70 -100 -116 -9 -49 3 -124 24 -154 34 -46
79 -62 159 -56 40 2 77 7 83 11 5 3 10 43 10 91 l0 84 -68 0 -69 0 5 -30 c4
-25 9 -30 33 -30 26 0 29 -3 29 -35 0 -32 -2 -35 -30 -35 -68 0 -100 37 -100
115 0 80 74 126 155 95 23 -9 27 -7 36 17 6 16 6 30 0 36 -13 13 -130 18 -167
7z"/>
<path d="M1258 1869 c-24 -9 -26 -13 -16 -35 13 -27 14 -28 56 -13 35 12 72
-2 72 -26 0 -11 -11 -15 -39 -15 -50 0 -99 -18 -111 -40 -16 -31 -11 -79 10
-100 25 -25 86 -27 119 -3 22 15 25 15 36 0 7 -10 22 -17 34 -17 20 0 21 4 21
104 0 133 -10 148 -96 152 -32 2 -71 -1 -86 -7z m112 -146 c0 -27 -12 -41 -41
-48 -18 -4 -30 -1 -39 11 -13 14 -11 19 9 35 30 25 71 25 71 2z"/>
<path d="M1514 1867 c-2 -7 -3 -65 -2 -128 l3 -114 38 -3 37 -3 0 79 c0 88 14
112 63 112 15 0 27 6 27 13 0 6 3 22 6 35 6 19 3 22 -23 22 -17 0 -42 -9 -56
-20 -25 -20 -25 -20 -30 0 -6 23 -54 28 -63 7z"/>
<path d="M1770 1873 c-45 -17 -62 -61 -40 -102 5 -10 32 -28 59 -40 56 -24 70
-39 50 -52 -14 -9 -50 -7 -96 7 -20 6 -23 3 -23 -24 0 -34 17 -42 88 -42 80 0
124 42 108 104 -4 17 -22 30 -66 49 -33 15 -60 31 -60 36 0 17 33 22 68 10 37
-12 52 -3 52 32 0 24 -95 39 -140 22z"/>
<path d="M2278 1865 c-78 -44 -76 -190 3 -230 46 -25 123 -16 156 17 47 48 47
148 0 196 -32 32 -117 41 -159 17z m106 -61 c18 -18 21 -76 6 -105 -13 -24
-62 -26 -81 -3 -7 9 -14 33 -14 54 0 21 7 45 14 54 17 20 55 21 75 0z"/>
<path d="M2530 1750 l0 -130 34 0 34 0 4 81 c4 89 16 109 70 109 25 0 28 3 28
35 0 30 -3 35 -24 35 -13 0 -35 -10 -50 -21 l-27 -21 -6 21 c-4 15 -13 21 -34
21 l-29 0 0 -130z"/>
<path d="M3094 1861 c-76 -47 -69 -183 10 -226 44 -24 118 -16 152 16 52 49
52 149 -1 199 -35 33 -118 39 -161 11z m116 -60 c5 -11 10 -34 10 -51 0 -46
-16 -70 -48 -70 -16 0 -33 5 -40 12 -16 16 -16 100 0 116 19 19 66 15 78 -7z"/>
<path d="M3354 1867 c-2 -7 -3 -65 -2 -128 l3 -114 38 -3 37 -3 0 81 c0 91 10
120 43 120 39 0 47 -18 47 -112 l0 -88 35 0 35 0 0 73 c0 93 7 116 36 123 44
11 54 -10 54 -107 l0 -89 38 0 37 0 -5 115 c-5 122 -8 128 -58 141 -32 9 -89
-4 -96 -22 -5 -13 -10 -13 -32 5 -31 25 -90 28 -121 6 -19 -13 -22 -13 -27 0
-7 18 -55 20 -62 2z"/>
<path d="M3820 1750 l0 -130 40 0 40 0 0 81 c0 92 10 119 45 119 35 0 45 -27
45 -119 l0 -81 35 0 35 0 0 75 c0 92 13 125 51 125 35 0 39 -13 39 -116 l0
-84 35 0 35 0 0 108 c0 59 -4 112 -8 118 -23 34 -85 43 -133 19 -27 -14 -32
-14 -51 0 -28 19 -71 19 -108 0 -25 -13 -29 -13 -34 0 -3 9 -18 15 -36 15
l-30 0 0 -130z"/>
<path d="M4334 1861 c-51 -32 -69 -112 -38 -176 47 -100 218 -78 238 31 9 46
-8 105 -39 134 -35 33 -118 39 -161 11z m116 -60 c5 -11 10 -34 10 -51 0 -46
-16 -70 -48 -70 -16 0 -33 5 -40 12 -16 16 -16 100 0 116 19 19 66 15 78 -7z"/>
<path d="M4590 1750 l0 -130 40 0 40 0 0 81 c0 96 10 119 51 119 38 0 49 -27
49 -126 l0 -74 35 0 35 0 0 95 c0 134 -19 165 -100 165 -14 0 -37 -6 -52 -14
-23 -12 -27 -12 -32 0 -3 8 -19 14 -36 14 l-30 0 0 -130z"/>
<path d="M5294 1861 c-76 -47 -69 -183 10 -226 47 -25 118 -16 156 20 52 49
49 144 -5 195 -35 33 -118 39 -161 11z m116 -60 c5 -11 10 -34 10 -51 0 -46
-16 -70 -48 -70 -39 0 -52 17 -52 70 0 25 5 51 12 58 19 19 66 15 78 -7z"/>
<path d="M5598 1865 c-54 -31 -75 -122 -43 -185 36 -69 153 -81 207 -21 24 27
28 40 28 91 0 51 -4 64 -28 91 -24 27 -37 33 -83 36 -36 2 -63 -2 -81 -12z
m106 -61 c19 -19 20 -82 2 -106 -17 -22 -59 -23 -77 -2 -7 9 -14 33 -14 54 0
21 7 45 14 54 17 20 55 21 75 0z"/>
<path d="M4420 1390 c0 -47 4 -80 10 -80 6 0 10 33 10 80 0 47 -4 80 -10 80
-6 0 -10 -33 -10 -80z"/>
<path d="M4970 1447 c0 -18 -5 -22 -32 -22 -26 0 -34 -5 -42 -27 -6 -18 -6
-38 0 -55 8 -24 15 -28 52 -29 l42 -2 0 79 c0 46 -4 79 -10 79 -5 0 -10 -10
-10 -23z m-2 -80 c-2 -27 -7 -32 -28 -32 -20 0 -26 6 -28 28 -5 38 14 60 40
46 14 -8 18 -19 16 -42z"/>
<path d="M1932 1444 c-29 -20 -31 -93 -4 -117 20 -18 82 -23 82 -7 0 6 -13 10
-28 10 -36 0 -52 17 -52 55 0 40 16 55 58 55 19 0 31 4 27 10 -9 15 -58 12
-83 -6z"/>
<path d="M2306 1445 c-9 -21 -9 -87 0 -117 3 -10 15 -18 27 -18 20 1 21 2 5
14 -12 9 -18 27 -18 54 0 30 4 42 18 45 15 4 15 5 0 6 -9 0 -18 9 -20 19 -3
15 -5 15 -12 -3z"/>
<path d="M2990 1445 c0 -8 -5 -15 -11 -15 -8 0 -8 -4 -1 -13 6 -7 12 -33 14
-57 3 -40 6 -45 28 -48 22 -2 23 -1 8 8 -13 8 -18 24 -18 55 0 33 4 45 18 48
16 4 16 5 0 6 -10 0 -18 8 -18 16 0 8 -4 15 -10 15 -5 0 -10 -7 -10 -15z"/>
<path d="M2054 1419 c-4 -6 1 -9 12 -8 21 4 44 -7 44 -22 0 -5 -11 -9 -24 -9
-24 0 -56 -23 -56 -39 0 -17 28 -30 62 -29 33 1 35 3 36 40 1 22 -3 48 -8 59
-12 20 -54 26 -66 8z m56 -64 c0 -22 -35 -38 -49 -22 -8 10 -7 17 1 25 17 17
48 15 48 -3z"/>
<path d="M2160 1368 c0 -32 4 -58 10 -58 6 0 10 20 10 45 0 39 3 47 25 55 35
13 31 20 -10 17 l-35 -2 0 -57z"/>
<path d="M2386 1414 c-35 -35 -10 -104 38 -104 32 0 46 19 46 60 0 20 -5 41
-12 48 -17 17 -54 15 -72 -4z m59 -44 c0 -31 -3 -35 -25 -35 -19 0 -26 6 -28
23 -5 36 5 54 30 50 19 -2 23 -9 23 -38z"/>
<path d="M2560 1368 c0 -32 4 -58 10 -58 6 0 10 22 10 49 0 32 5 51 14 54 22
9 36 -14 36 -60 0 -58 18 -55 22 5 3 40 6 47 26 50 20 3 22 0 22 -47 0 -29 5
-51 11 -51 6 0 9 20 7 51 -3 60 -24 82 -58 62 -12 -8 -21 -9 -25 -3 -3 6 -22
9 -41 7 l-34 -2 0 -57z"/>
<path d="M2762 1418 c-16 -16 -16 -80 0 -96 14 -14 64 -16 73 -3 3 5 -9 11
-27 13 -37 3 -47 32 -13 34 11 1 26 2 33 3 15 1 16 33 0 49 -7 7 -21 12 -33
12 -12 0 -26 -5 -33 -12z m56 -25 c2 -8 -6 -13 -22 -13 -25 0 -33 10 -19 24
10 10 36 3 41 -11z"/>
<path d="M2880 1414 c-8 -8 -13 -28 -13 -44 0 -16 5 -36 13 -44 14 -18 65 -22
75 -6 4 6 -6 10 -23 10 -29 0 -58 21 -45 33 3 4 21 7 40 7 25 0 33 4 33 18 0
39 -55 57 -80 26z m58 -21 c2 -9 -7 -13 -27 -13 -23 0 -29 4 -24 16 6 17 44
15 51 -3z"/>
<path d="M3103 1418 c2 -7 13 -37 23 -66 l19 -54 -25 -20 -25 -20 25 3 c20 3
29 17 52 79 30 82 32 90 20 90 -5 0 -15 -21 -23 -47 l-15 -48 -18 48 c-11 26
-23 47 -28 47 -6 0 -8 -6 -5 -12z"/>
<path d="M3232 1418 c-16 -16 -16 -80 0 -96 32 -32 88 -1 88 48 0 49 -56 80
-88 48z m68 -48 c0 -42 -24 -56 -49 -31 -22 22 -19 47 7 68 21 17 42 -1 42
-37z"/>
<path d="M3354 1375 l1 -60 43 0 42 -1 0 58 c0 70 -18 78 -22 11 -3 -41 -6
-48 -25 -51 -23 -3 -27 5 -37 73 -2 17 -3 3 -2 -30z"/>
<path d="M3480 1368 c0 -32 4 -58 10 -58 6 0 10 21 10 46 0 37 4 47 20 51 31
8 24 22 -10 20 -30 -2 -30 -3 -30 -59z"/>
<path d="M3620 1343 c0 -49 4 -83 10 -83 6 0 10 13 10 29 0 24 3 28 24 24 33
-7 60 34 51 77 -7 31 -24 40 -72 37 -22 -1 -23 -5 -23 -84z m75 47 c10 -33 -4
-62 -28 -58 -17 2 -23 11 -25 41 -3 34 -1 37 22 37 16 0 27 -7 31 -20z"/>
<path d="M3756 1408 c-33 -46 -7 -98 47 -98 38 0 33 18 -5 22 -48 4 -44 32 5
36 40 3 48 20 21 46 -22 22 -50 20 -68 -6z m64 -19 c0 -5 -13 -9 -30 -9 -33 0
-39 14 -13 29 18 10 43 -2 43 -20z"/>
<path d="M3872 1365 c1 -59 1 -59 7 -15 5 34 12 47 29 55 31 14 27 25 -8 22
-30 -2 -30 -2 -28 -62z"/>
<path d="M3949 1414 c-14 -17 -5 -29 47 -60 25 -15 12 -27 -27 -26 -22 0 -28
-3 -22 -9 6 -6 23 -9 39 -7 23 2 30 9 32 29 2 21 -3 29 -27 39 -46 19 -40 36
12 31 9 -1 17 3 17 8 0 17 -56 13 -71 -5z"/>
<path d="M4060 1414 c-8 -8 -13 -28 -13 -44 0 -37 19 -60 49 -60 31 0 54 25
54 60 0 52 -60 81 -90 44z m65 -44 c0 -30 -3 -35 -27 -38 -30 -4 -44 23 -33
59 5 15 14 19 33 17 24 -3 27 -8 27 -38z"/>
<path d="M4180 1368 c0 -32 4 -58 10 -58 6 0 10 19 10 43 0 46 14 69 36 60 9
-3 14 -22 14 -54 0 -28 5 -49 10 -49 7 0 10 22 8 58 l-3 57 -42 0 -43 1 0 -58z"/>
<path d="M4314 1419 c-3 -6 1 -10 12 -9 34 4 44 0 44 -15 0 -9 -9 -15 -24 -15
-28 0 -49 -22 -44 -47 2 -14 13 -18 46 -19 l42 -2 0 47 c0 26 -5 52 -12 59
-15 15 -55 16 -64 1z m54 -66 c-4 -23 -48 -31 -48 -10 0 9 6 18 13 20 25 11
38 7 35 -10z"/>
<path d="M4530 1368 c0 -69 18 -78 22 -10 3 43 5 47 28 47 23 0 25 -4 28 -47
4 -58 22 -64 22 -7 0 62 -13 79 -60 77 l-40 -1 0 -59z"/>
<path d="M4671 1416 c-16 -20 -17 -72 -1 -91 14 -17 65 -20 75 -5 4 6 -6 10
-23 10 -29 0 -58 21 -45 33 3 4 21 7 40 7 25 0 33 4 33 18 0 39 -55 58 -79 28z
m57 -23 c2 -8 -6 -13 -22 -13 -25 0 -33 10 -19 24 10 10 36 3 41 -11z"/>
<path d="M4786 1414 c-9 -8 -16 -28 -16 -44 0 -16 7 -36 16 -44 18 -18 74 -22
74 -5 0 6 -9 9 -20 6 -22 -6 -54 19 -45 34 4 5 22 9 41 9 23 0 34 5 34 14 0
20 -28 46 -50 46 -10 0 -26 -7 -34 -16z m62 -21 c2 -9 -7 -13 -27 -13 -30 0
-39 9 -24 24 11 10 46 3 51 -11z"/>
<path d="M5027 1423 c-16 -15 -5 -44 23 -58 17 -9 30 -19 30 -24 0 -13 -27
-21 -45 -15 -8 4 -15 1 -15 -5 0 -16 55 -14 69 3 16 20 4 43 -30 55 -46 16
-37 37 14 32 9 -1 17 3 17 8 0 12 -52 15 -63 4z"/>
</g>
</svg>
